<?xml version="1.0" encoding="utf-8"?>
<!-- Generator: Adobe Illustrator 15.1.0, SVG Export Plug-In . SVG Version: 6.00 Build 0)  -->
<!DOCTYPE svg PUBLIC "-//W3C//DTD SVG 1.1//EN" "http://www.w3.org/Graphics/SVG/1.1/DTD/svg11.dtd">
<svg version="1.1" id="Layer_1" xmlns="http://www.w3.org/2000/svg" xmlns:xlink="http://www.w3.org/1999/xlink" x="0px" y="0px"
	 width="841.889px" height="350px" viewBox="0 121.14 841.889 350" enable-background="new 0 121.14 841.889 350"
	 xml:space="preserve">
<path fill="#242424" d="M324.319,448.319c4.784,2.87,13.395,5.74,22.004,5.74c9.567,0,14.352-3.826,14.352-9.566
	c0-5.739-4.783-8.609-15.307-12.438c-15.309-4.783-24.874-13.395-24.874-26.787c0-15.307,12.437-26.787,33.483-26.787
	c10.523,0,17.22,1.913,22.004,4.783l-2.87,16.264c-3.826-1.913-9.566-4.783-18.178-4.783s-13.394,3.826-13.394,8.61
	c0,5.74,5.739,7.653,16.264,12.438c16.264,5.739,22.961,14.351,22.961,26.787c0,15.308-11.479,27.744-36.354,27.744
	c-10.523,0-20.092-2.87-25.831-5.739L324.319,448.319L324.319,448.319z M412.334,380.394v34.441h33.483v-34.441h20.091v88.973
	h-20.091v-37.312h-33.483v37.312h-20.09v-88.973H412.334z M498.437,425.359c0,17.221,8.61,29.657,21.047,29.657
	c13.395,0,21.048-13.395,21.048-30.614c0-16.264-7.653-29.657-21.048-29.657C506.09,394.745,498.437,408.138,498.437,425.359z
	 M562.534,424.402c0,29.657-17.221,46.878-43.052,46.878c-26.787,0-42.094-20.091-42.094-44.965
	c0-26.787,17.22-46.878,43.051-46.878C547.228,379.437,562.534,399.528,562.534,424.402z M594.106,422.489h6.697
	c10.522,0,17.221-4.784,17.221-14.351c0-8.61-5.74-13.395-16.264-13.395c-4.784,0-6.697,0-8.61,0.956v26.788L594.106,422.489
	L594.106,422.489z M573.059,382.307c6.697-0.956,15.307-1.913,26.787-1.913c12.438,0,21.048,1.913,26.787,6.697
	c5.739,4.782,9.566,11.479,9.566,21.047c0,8.609-2.87,15.307-8.609,21.047c-6.696,5.74-17.222,9.567-28.701,9.567h-6.696v31.569
	h-20.091v-88.016L573.059,382.307L573.059,382.307z M647.681,448.319c5.74,2.87,13.394,5.74,22.004,5.74
	c9.566,0,14.351-3.826,14.351-9.566c0-5.739-4.783-8.609-15.308-12.438c-15.307-4.783-24.874-13.395-24.874-26.787
	c0-15.307,12.438-26.787,33.484-26.787c10.522,0,17.221,1.913,22.004,4.783l-4.783,16.264c-3.827-1.913-9.567-4.783-18.178-4.783
	c-8.609,0-13.395,3.826-13.395,8.61c0,5.74,5.74,7.653,16.265,12.438c16.265,5.739,22.961,14.351,22.961,26.787
	c0,15.308-11.48,27.744-36.354,27.744c-10.522,0-20.09-2.87-25.83-5.739L647.681,448.319L647.681,448.319z M340.582,287.594h-23.917
	v-17.221h68.882v17.221h-24.874v72.709h-20.091V287.594z M413.29,309.599h7.653c10.523,0,16.264-4.784,16.264-12.438
	c0-8.609-5.739-12.438-15.307-12.438h-8.61V309.599z M393.2,271.331c6.696-0.956,16.264-1.913,26.786-1.913
	c13.396,0,22.961,1.913,28.701,6.697c5.74,3.826,8.61,10.523,8.61,18.177c0,11.48-7.653,19.135-16.265,22.005
	c5.74,2.869,9.566,8.609,11.48,16.264c2.87,10.523,5.74,22.004,7.652,25.831h-21.048c-1.913-2.87-3.825-10.523-6.695-21.047
	c-1.913-10.524-5.74-14.352-14.352-14.352h-5.74v35.397h-20.089V271.33L393.2,271.331L393.2,271.331z M488.868,270.375v51.661
	c0,15.309,5.74,22.961,16.265,22.961c10.523,0,16.265-7.652,16.265-22.961v-51.661h20.09v49.748
	c0,27.744-14.351,41.139-37.311,41.139c-22.004,0-35.397-12.438-35.397-41.139v-49.748H488.868z M555.838,339.258
	c5.739,2.87,13.394,5.739,22.004,5.739c9.566,0,14.351-3.826,14.351-9.566s-3.827-8.61-15.308-12.438
	c-15.308-4.782-24.873-13.394-24.873-26.788c0-15.307,12.437-26.787,33.482-26.787c10.524,0,17.222,1.913,22.962,4.783
	l-4.783,16.264c-3.827-1.912-10.523-3.825-19.134-3.825c-8.611,0-12.438,3.825-12.438,8.609c0,5.74,4.784,8.61,16.264,12.438
	c15.309,5.74,22.961,14.351,22.961,26.788c0,15.307-11.479,27.744-36.354,27.744c-10.523,0-20.09-2.87-24.874-5.74L555.838,339.258
	L555.838,339.258z M640.984,287.594h-23.917v-17.221h68.882v17.221h-24.874v72.709h-20.091V287.594z M747.177,322.036h-33.484
	v21.049h36.354v17.22h-56.445v-89.93h54.531v17.221h-34.44v18.178h33.484V322.036z M783.531,344.997h6.696
	c18.178,0,30.614-10.522,30.614-31.57c0-19.135-10.523-28.701-27.744-28.701c-4.783,0-7.653,0-9.566,0.957V344.997L783.531,344.997z
	 M762.484,271.331c7.654-0.956,17.221-1.913,26.788-1.913c17.22,0,27.744,2.87,37.311,9.567
	c9.567,6.696,15.309,18.177,15.309,33.484c0,17.22-5.74,28.7-15.309,36.354c-9.565,7.654-23.916,11.48-41.138,11.48
	c-10.522,0-18.177-0.956-22.961-0.956V271.331z M143.504,360.303c-50.705,0-90.886-41.139-90.886-91.844
	c0-50.704,41.138-90.886,90.886-90.886c50.704,0,91.842,41.138,91.842,90.886C235.346,319.166,194.208,360.303,143.504,360.303z
	 M145.417,124.001C65.055,124.001,0,189.055,0,268.461C0,348.823,65.055,413.88,145.417,413.88
	c80.361,0,145.417-65.057,145.417-145.419C289.878,189.055,225.78,124.001,145.417,124.001z"/>
<path fill="#242424" d="M169.334,227.323c0-6.696-3.826-11.479-10.523-11.479c-21.047,0-31.569,40.182-35.396,56.444
	C142.547,265.591,169.334,250.284,169.334,227.323z M183.685,297.162c-13.394,20.092-31.57,37.312-56.443,37.312
	c-26.788,0-42.096-16.264-42.096-43.053c0-43.051,31.57-85.146,76.535-85.146c15.308,0,35.397,5.74,35.397,23.917
	c0,32.527-51.661,44.008-76.535,49.748c-0.957,5.74-1.913,10.522-1.913,16.264c0,11.48,5.74,21.049,18.177,21.049
	c16.264,0,29.657-15.309,39.225-26.789L183.685,297.162z"/>
</svg>
